<?xml version="1.0" encoding="utf-8"?>
<!-- Generator: Adobe Illustrator 25.0.1, SVG Export Plug-In . SVG Version: 6.00 Build 0)  -->
<svg version="1.1" id="Layer_1" xmlns="http://www.w3.org/2000/svg" xmlns:xlink="http://www.w3.org/1999/xlink" x="0px" y="0px"
	 viewBox="0 0 471.3 118.9" style="enable-background:new 0 0 471.3 118.9;" xml:space="preserve">
<style type="text/css">
	.st0{fill:#00627F;}
	.st1{fill:none;stroke:#00627F;stroke-linecap:round;stroke-linejoin:round;stroke-miterlimit:10;}
	.st2{fill:none;stroke:#00627F;stroke-miterlimit:10;}
	.st3{fill:#A6A77B;}
	.st4{fill:#00627F;stroke:#00627F;stroke-linecap:round;stroke-linejoin:round;stroke-miterlimit:10;}
	.st5{fill:#00627F;stroke:#00627F;stroke-miterlimit:10;}
	.st6{fill:#FFFFFF;}
</style>
<g>
	<title>BSMS_logo_2015_WO</title>
	<path class="st0" d="M97.7,15.8h2.6v12.1h0.1c1.2-2.9,4.2-4.8,7.3-4.6c6.4,0,9.5,5.2,9.5,11.2s-3.1,11.2-9.5,11.2
		c-3.2,0.1-6.2-1.7-7.5-4.6h-0.1v4h-2.4L97.7,15.8z M107.7,25.4c-5.5,0-7.4,4.6-7.4,9s1.9,9,7.4,9c4.9,0,6.9-4.6,6.9-9
		S112.6,25.4,107.7,25.4L107.7,25.4z"/>
	<path class="st0" d="M121.2,23.9h2.4v5h0.1c1.2-3.4,4.5-5.5,8-5.2v2.5c-4-0.3-7.5,2.7-7.8,6.7c0,0.3,0,0.6,0,0.9V45h-2.6
		L121.2,23.9z"/>
	<path class="st0" d="M134.2,15.8h2.6v4.1h-2.6V15.8z M134.2,23.9h2.6V45h-2.6V23.9z"/>
	<path class="st0" d="M159.5,43.3c0,6.3-2.5,10.2-9.4,10.2c-4.2,0-8.4-1.9-8.8-6.4h2.6c0.6,3.1,3.3,4.2,6.2,4.2c4.8,0,6.8-2.8,6.8-8
		v-2.9h-0.1c-1.2,2.6-3.8,4.3-6.7,4.3c-6.8,0-9.5-4.8-9.5-10.8c0-5.8,3.4-10.6,9.5-10.6c2.9,0,5.5,1.7,6.7,4.3h0.1v-3.6h2.6
		L159.5,43.3z M157,34.2c0-4.1-1.9-8.8-6.8-8.8s-7,4.4-7,8.8s2.2,8.4,7,8.4C154.6,42.6,157,38.5,157,34.2z"/>
	<path class="st0" d="M164.4,15.8h2.6v11.8h0.1c1.2-2.7,3.8-4.3,6.8-4.3c5.9,0,7.7,3.1,7.7,8.2V45H179V31.8c0-3.6-1.2-6.4-5.4-6.4
		s-6.5,3.1-6.6,7.2V45h-2.6V15.8z"/>
	<path class="st0" d="M190.5,23.9h4.3V26h-4.3v14.2c0,1.7,0.2,2.7,2.1,2.8c0.7,0,1.5,0,2.2-0.1v2.2c-0.8,0-1.5,0.1-2.3,0.1
		c-3.4,0-4.6-1.2-4.6-4.8V26h-3.7v-2.2h3.7v-6.3h2.6L190.5,23.9z"/>
	<path class="st0" d="M217.5,34.4c0,6.1-3.5,11.2-10,11.2s-10-5.1-10-11.2s3.5-11.2,10-11.2S217.5,28.4,217.5,34.4z M200.1,34.4
		c0,4.5,2.5,9,7.4,9s7.4-4.5,7.4-9s-2.5-9-7.4-9S200.1,29.9,200.1,34.4z"/>
	<path class="st0" d="M221.3,23.9h2.6v3.6l0,0c1.2-2.7,3.8-4.3,6.8-4.3c5.9,0,7.7,3.1,7.7,8.2V45h-2.5V31.8c0-3.6-1.2-6.4-5.4-6.4
		s-6.5,3.1-6.6,7.2V45h-2.6L221.3,23.9z"/>
	<path class="st0" d="M254.4,30.3c0.2-5,3.7-7.1,8.5-7.1c3.7,0,7.8,1.2,7.8,6.8v11.2c-0.1,0.7,0.4,1.4,1.2,1.6c0.1,0,0.2,0,0.4,0
		c0.3,0,0.6-0.1,0.8-0.2v2.2c-0.6,0.1-1.1,0.2-1.7,0.2c-2.6,0-3-1.5-3-3.7h-0.1c-1.8,2.7-3.6,4.3-7.7,4.3c-3.9,0-7.1-1.9-7.1-6.2
		c0-5.9,5.8-6.1,11.3-6.8c2.1-0.2,3.3-0.5,3.3-2.9c0-3.5-2.5-4.3-5.5-4.3c-3.2,0-5.6,1.5-5.7,4.9L254.4,30.3z M268.2,33.4
		L268.2,33.4c-0.4,0.6-1.5,0.8-2.2,0.9c-4.4,0.8-9.8,0.7-9.8,4.9c0,2.6,2.3,4.2,4.7,4.2c3.9,0,7.4-2.5,7.4-6.6V33.4z"/>
	<path class="st0" d="M275.9,23.9h2.6v3.6h0.1c1.2-2.7,3.8-4.3,6.8-4.3c5.9,0,7.7,3.1,7.7,8.2V45h-2.6V31.8c0-3.6-1.2-6.4-5.4-6.4
		s-6.5,3.1-6.6,7.2V45h-2.6V23.9z"/>
	<path class="st0" d="M316.5,45h-2.4v-4H314c-1.1,2.7-4.5,4.6-7.5,4.6c-6.4,0-9.5-5.2-9.5-11.2s3.1-11.2,9.5-11.2
		c3.2-0.2,6.1,1.7,7.3,4.6h0.1V15.8h2.6L316.5,45z M306.5,43.4c5.5,0,7.4-4.6,7.4-9s-1.9-9-7.4-9c-4.9,0-6.9,4.6-6.9,9
		S301.6,43.4,306.5,43.4L306.5,43.4z"/>
	<path class="st0" d="M345.4,30.1c-0.1-3.2-2.6-4.6-5.5-4.6c-2.3,0-5,0.9-5,3.6c0,2.3,2.6,3.1,4.4,3.6l3.4,0.8c3,0.5,6,2.2,6,5.8
		c0,4.6-4.5,6.3-8.5,6.3c-4.9,0-8.3-2.3-8.7-7.5h2.6c0.2,3.5,2.8,5.3,6.2,5.3c2.4,0,5.8-1.1,5.8-4c0-2.5-2.3-3.3-4.6-3.8l-3.3-0.7
		c-3.4-0.9-5.9-2-5.9-5.7c0-4.3,4.2-5.9,7.9-5.9c4.2,0,7.6,2.2,7.7,6.8H345.4z"/>
	<path class="st0" d="M369.6,45h-2.4v-3.8h-0.1c-1.4,2.8-4.2,4.5-7.3,4.4c-5.3,0-7.4-3.1-7.4-8V23.9h2.6v13.8
		c0.1,3.8,1.5,5.8,5.7,5.8c4.4,0,6.3-4.2,6.3-8.5V23.9h2.6L369.6,45z"/>
	<path class="st0" d="M387.1,30.1c-0.1-3.2-2.6-4.6-5.5-4.6c-2.3,0-5,0.9-5,3.6c0,2.3,2.6,3.1,4.4,3.6l3.4,0.8c3,0.5,6,2.2,6,5.8
		c0,4.6-4.5,6.3-8.5,6.3c-4.9,0-8.3-2.3-8.7-7.5h2.6c0.2,3.5,2.8,5.3,6.2,5.3c2.4,0,5.8-1.1,5.8-4c0-2.5-2.3-3.3-4.6-3.8l-3.3-0.7
		c-3.4-0.9-5.9-2-5.9-5.7c0-4.3,4.2-5.9,7.9-5.9c4.2,0,7.6,2.2,7.7,6.8H387.1z"/>
	<path class="st0" d="M406.8,30.1c-0.1-3.2-2.6-4.6-5.5-4.6c-2.3,0-5,0.9-5,3.6c0,2.3,2.6,3.1,4.4,3.6l3.4,0.8c3,0.5,6,2.2,6,5.8
		c0,4.6-4.5,6.3-8.5,6.3c-4.9,0-8.3-2.3-8.7-7.5h2.6c0.2,3.5,2.8,5.3,6.2,5.3c2.4,0,5.8-1.1,5.8-4c0-2.5-2.3-3.3-4.6-3.8l-3.3-0.7
		c-3.4-0.9-5.9-2-5.9-5.7c0-4.3,4.2-5.9,7.9-5.9c4.2,0,7.6,2.2,7.7,6.8H406.8z"/>
	<path class="st0" d="M415.3,35.2c0,3.8,2,8.3,7,8.3c3.8,0,5.8-2.2,6.6-5.4h2.6c-1.1,4.8-3.9,7.6-9.2,7.6c-6.7,0-9.5-5.2-9.5-11.2
		c0-5.6,2.8-11.2,9.5-11.2s9.5,5.9,9.3,11.9L415.3,35.2z M429,33c-0.1-3.9-2.5-7.5-6.7-7.5s-6.5,3.7-7,7.5H429z"/>
	<path class="st0" d="M440.8,34l-7.6-10.2h3.2l6,8l5.9-8h3.2L444,34l8.2,11h-3.3l-6.6-8.9l-6.5,8.9h-3.2L440.8,34z"/>
	<path class="st0" d="M97.7,69.4h2.4V73h0.1c1.3-2.6,4-4.3,6.9-4.2c2.8,0,5.3,1.3,6.1,4.1c1.2-2.6,3.8-4.2,6.7-4.1
		c4.6,0,7,2.4,7,7.4v14.3h-2.6V76.4c0-3.5-1.3-5.4-5-5.4c-4.5,0-5.7,3.7-5.7,7.6v12H111V76.2c0-2.9-1.2-5.2-4.4-5.2
		c-4.5,0-6.3,3.4-6.3,7.8v11.8h-2.6L97.7,69.4z"/>
	<path class="st0" d="M133.3,80.7c0,3.8,2,8.3,7,8.3c3.8,0,5.8-2.2,6.6-5.4h2.6c-1.1,4.8-3.9,7.6-9.2,7.6c-6.7,0-9.5-5.2-9.5-11.2
		c0-5.6,2.8-11.2,9.5-11.2s9.5,5.9,9.3,11.9L133.3,80.7z M147,78.5c-0.1-3.9-2.5-7.5-6.7-7.5s-6.5,3.7-7,7.5H147z"/>
	<path class="st0" d="M171.7,90.6h-2.4v-4h-0.1c-1.1,2.7-4.5,4.6-7.5,4.6c-6.4,0-9.5-5.2-9.5-11.2s3.1-11.2,9.5-11.2
		c3.2-0.2,6.1,1.7,7.3,4.6h0.1V61.3h2.6L171.7,90.6z M161.7,89c5.5,0,7.4-4.6,7.4-9s-1.9-9-7.4-9c-4.9,0-6.9,4.6-6.9,9
		S156.8,89,161.7,89L161.7,89z"/>
	<path class="st0" d="M176.6,61.3h2.6v4.1h-2.6V61.3z M176.6,69.4h2.6v21.1h-2.6V69.4z"/>
	<path class="st0" d="M199,76.1c-0.7-3.2-2.6-5.1-6-5.1c-5,0-7.4,4.5-7.4,9s2.5,9,7.4,9c3.3-0.1,6-2.7,6.1-6h2.6
		c-0.7,5.1-4,8.2-8.7,8.2c-6.5,0-10-5.1-10-11.2s3.5-11.2,10-11.2c4.5,0,8,2.4,8.6,7.2H199z"/>
	<path class="st0" d="M205.1,75.9c0.2-5,3.7-7.1,8.6-7.1c3.7,0,7.8,1.2,7.8,6.8v11.2c-0.1,0.7,0.4,1.4,1.2,1.5c0.1,0,0.2,0,0.3,0
		c0.3,0,0.6-0.1,0.8-0.2v2.2c-0.6,0.1-1.1,0.2-1.7,0.2c-2.6,0-3-1.5-3-3.7h-0.1c-1.8,2.7-3.6,4.3-7.7,4.3c-3.9,0-7.1-1.9-7.1-6.2
		c0-5.9,5.8-6.1,11.3-6.8c2.1-0.2,3.3-0.5,3.3-2.9c0-3.5-2.5-4.3-5.5-4.3c-3.2,0-5.6,1.5-5.7,4.9L205.1,75.9z M218.9,79L218.9,79
		c-0.4,0.6-1.5,0.8-2.2,0.9c-4.4,0.8-9.8,0.7-9.8,4.9c0,2.6,2.3,4.2,4.7,4.2c3.9,0,7.4-2.5,7.4-6.6V79z"/>
	<path class="st0" d="M226.7,61.3h2.6v29.2h-2.6V61.3z"/>
	<path class="st0" d="M258.2,75.6c-0.1-3.2-2.6-4.6-5.5-4.6c-2.3,0-5,0.9-5,3.6c0,2.3,2.6,3.1,4.4,3.6l3.4,0.8c3,0.5,6,2.2,6,5.9
		c0,4.6-4.5,6.3-8.5,6.3c-4.9,0-8.3-2.3-8.7-7.5h2.6c0.2,3.5,2.8,5.3,6.2,5.3c2.4,0,5.8-1.1,5.8-4c0-2.5-2.3-3.3-4.6-3.8l-3.3-0.7
		c-3.4-0.9-5.9-2-5.9-5.7c0-4.3,4.2-5.9,7.9-5.9c4.2,0,7.6,2.2,7.7,6.8L258.2,75.6z"/>
	<path class="st0" d="M280.2,76.1c-0.7-3.2-2.6-5.1-6-5.1c-5,0-7.4,4.5-7.4,9s2.5,9,7.4,9c3.3-0.1,6-2.7,6.1-6h2.6
		c-0.7,5.1-4,8.2-8.7,8.2c-6.5,0-10-5.1-10-11.2s3.5-11.2,10-11.2c4.5,0,8,2.4,8.6,7.2H280.2z"/>
	<path class="st0" d="M286.5,61.3h2.6v11.8h0.1c1.2-2.7,3.8-4.3,6.8-4.3c5.9,0,7.7,3.1,7.7,8.2v13.6H301V77.4c0-3.6-1.2-6.4-5.4-6.4
		s-6.5,3.1-6.6,7.2v12.3h-2.6V61.3z"/>
	<path class="st0" d="M327.4,80c0,6.1-3.5,11.2-10,11.2s-10-5.1-10-11.2s3.5-11.2,10-11.2S327.4,73.9,327.4,80z M310,80
		c0,4.5,2.5,9,7.4,9s7.4-4.5,7.4-9s-2.5-9-7.4-9S310,75.5,310,80L310,80z"/>
	<path class="st0" d="M350.2,80c0,6.1-3.5,11.2-10,11.2s-10-5.1-10-11.2s3.5-11.2,10-11.2S350.2,73.9,350.2,80z M332.8,80
		c0,4.5,2.5,9,7.4,9s7.4-4.5,7.4-9s-2.5-9-7.4-9S332.8,75.5,332.8,80z"/>
	<path class="st0" d="M354,61.3h2.6v29.2H354V61.3z"/>
	<path class="st1" d="M77.5,47.1c-0.7-1.1-1.5-2-2.5-2.9c-4.9-4.4-13.6-5.8-22.2-7v9.2c10.4,1.4,20.7,2.8,24,8.1
		c0.7-1.1,1-2.4,1-3.7C77.9,49.5,77.8,48.3,77.5,47.1L77.5,47.1z"/>
	<g>
		<path class="st0" d="M51.6,98.1c-0.1,0-0.2,0-0.2-0.1c-0.1-0.1-0.1-0.2-0.1-0.3v-9.2c0-0.2,0.1-0.3,0.3-0.4
			c12.2-1.7,24.8-3.4,24.8-11.6c0.1-1.2-0.1-2.4-0.4-3.6l0,0c0-0.1,0-0.1,0-0.2c0-0.2,0.1-0.4,0.3-0.4c0,0,0,0,0.1,0
			c0.2,0,0.3,0.1,0.4,0.3c0,0,0,0,0,0c0.3,0.6,5.5,11.2-2.6,18.4C68.9,95.5,60.2,97,51.6,98.1C51.6,98.1,51.6,98.1,51.6,98.1z"/>
		<path class="st0" d="M76.2,72.7C76.2,72.7,76.2,72.8,76.2,72.7C76.2,72.8,76.2,72.8,76.2,72.7L76.2,72.7 M76.2,72.8
			c1.2,2.3,4.7,11.5-2.5,18c-4.9,4.4-13.6,5.9-22.2,7v-9.2c12.6-1.7,25.1-3.5,25.1-12C76.7,75.3,76.6,74,76.2,72.8 M76.2,71.9
			c0,0-0.1,0-0.1,0c-0.4,0.1-0.6,0.4-0.6,0.7v0c0,0.1,0,0.2,0.1,0.3c0.3,1.1,0.4,2.3,0.4,3.4c0,7.9-12.4,9.6-24.4,11.3
			c-0.4,0.1-0.7,0.4-0.7,0.7v9.2c0,0.2,0.1,0.4,0.3,0.6c0.1,0.1,0.3,0.2,0.5,0.2c0,0,0.1,0,0.1,0c8.6-1.1,17.4-2.6,22.6-7.2
			c6.8-6,4.8-14.9,2.7-18.8l0,0C76.8,72.2,76.5,71.9,76.2,71.9L76.2,71.9z"/>
	</g>
	<path class="st2" d="M28.7,28.9c-0.7,1.1-1,2.4-1,3.7c-0.1,1.3,0.1,2.6,0.4,3.8c0.7,1.2,1.6,2.2,2.6,3.1c4.9,4.4,13.6,5.8,22.2,7
		v-9.2C42.3,35.9,31.7,34.4,28.7,28.9L28.7,28.9z"/>
	<path class="st3" d="M28.1,36.3L28.1,36.3L28.1,36.3L28.1,36.3L28.1,36.3z"/>
	<path class="st3" d="M28.2,36.4L28.2,36.4L28.2,36.4L28.2,36.4L28.2,36.4z"/>
	<path class="st4" d="M78.5,22.5c0.4,1.2,0.5,2.5,0.5,3.8c0,8.5-12.5,10.3-25.1,12l0,0c-8.6,1.1-17.2,2.6-22.2,7
		c-7.2,6.5-3.7,15.8-2.5,18c-0.4-1.2-0.5-2.5-0.5-3.8c0-8.5,12.5-10.3,25.1-12l0,0c8.6-1.1,17.2-2.6,22.2-7
		C83.3,34,79.7,24.7,78.5,22.5z"/>
	<path class="st5" d="M31.3,65.3c1,0.9,2.1,1.6,3.3,2.2c4.7-2.5,11.2-3.5,17.6-4.3c-9.8-1.3-19.5-2.7-22.7-7.6
		c-0.6,1.1-0.9,2.3-0.9,3.5C28.1,61.6,29.2,64,31.3,65.3L31.3,65.3z"/>
	<path class="st6" d="M52.2,71.9"/>
	<path class="st5" d="M74,69.6c-1-0.9-2.1-1.6-3.3-2.2c-4.7,2.5-11.1,3.5-17.5,4.3l0,0c10,1.3,19.9,2.7,22.8,7.9
		c0.6-1.1,0.9-2.3,0.9-3.5c0-1.2-0.1-2.4-0.4-3.6C75.7,71.4,74.9,70.4,74,69.6z"/>
	<path class="st1" d="M77.4,46.9c0.4,1.2,0.5,2.5,0.5,3.8c0,8.5-12.5,10.3-25.1,12l0,0c-8.6,1.1-17.2,2.6-22.2,7
		c-7.2,6.5-3.7,15.8-2.5,18c-0.4-1.2-0.5-2.5-0.5-3.8c0-8.5,12.5-10.3,25.1-12l0,0c8.6-1.1,17.2-2.6,22.2-7
		C82.2,58.5,78.6,49.2,77.4,46.9z"/>
	<path class="st2" d="M28.2,35.4c-0.4-1.2-0.5-2.5-0.5-3.8c0-8.5,12.5-10.3,25.1-12v-9.2c-8.6,1.1-17.2,2.6-22.2,7
		C23.4,23.9,27,33.2,28.2,35.4L28.2,35.4z"/>
</g>
</svg>
